{"title":"See No Evil 2 (2014) BluRay 10Bit 1080p DD5.1 H265-d3g","magnet":"magnet:?xt=urn:btih:b142637c4ac46f2daebdc21951a04f9b1a3ae0b1&dn=See+No+Evil+2+%282014%29+BluRay+10Bit+1080p+DD5.1+H265-d3g&tr=udp%3A%2F%2Ftracker.leechers-paradise.org%3A6969&tr=udp%3A%2F%2Fzer0day.ch%3A1337&tr=udp%3A%2F%2Fopen.demonii.com%3A1337&tr=udp%3A%2F%2Ftracker.coppersurfer.tk%3A6969&tr=udp%3A%2F%2Fexodus.desync.com%3A6969","uploader":"roflcopter2110","categoryP":"video","categoryS":"hd___movies","size":"1778460121","seeders":"18","leechers":"26","description":"See No Evil 2 (2014) BluRay 10Bit 1080p DD5.1 H265-d3g\r\n <a href=\"\nhttps://i.imgur.com/hefoLoA.jpg\" rel=\"nofollow\" target=\"_NEW\">\nhttps://i.imgur.com/hefoLoA.jpg</a>\r\n\r\nPlot:\r\nHulking madman Jacob Goodnight (Kane) rises from the dead to terrorize a group of medical students at a city morgue.\r\n\r\nSource: BluRay ISO\r\n\r\nFormat: Matroska\r\nFormat version: Version 4 / Version 2\r\nFile size: 1.66 GiB\r\nDuration: 1 h 30 min\r\nOverall bit rate: 2 630 kb/s\r\nMovie name: See No Evil 2 (2014) BluRay 10Bit 1080p DD5.1 H265-d3g\r\nEncoded date: UTC 2017-08-24 12:19:18\r\nWriting application: DVDFab 10.0.5.2\r\nWriting library: libebml v1.3.4 + libmatroska v1.4.5\r\n\r\nVideo\r\nID: 1\r\nFormat: HEVC\r\nFormat/Info: High Efficiency Video Coding\r\nFormat profile: Main <a href=\"/cdn-cgi/l/email-protection\" class=\"__cf_email__\" data-cfemail=\"023332424e36\">[email&#xA0;protected]</a>@Main\r\nCodec ID: V_MPEGH/ISO/HEVC\r\nDuration: 1 h 30 min\r\nBit rate: 2 173 kb/s\r\nWidth: 1 920 pixels\r\nHeight: 1 080 pixels\r\nDisplay aspect ratio: 16:9\r\nFrame rate mode: Constant\r\nFrame rate: 23.976 (24000/1001) FPS\r\nColor space: YUV\r\nChroma subsampling: 4:2:0\r\nBit depth: 10 bits\r\nBits/(Pixel*Frame): 0.044\r\nStream size: 1.37 GiB (83%)\r\nDefault: Yes\r\nForced: No\r\nColor range: Limited\r\nColor primaries: BT.709\r\nTransfer characteristics: BT.709\r\nMatrix coefficients: BT.709\r\n\r\nAudio\r\nID: 2\r\nFormat: AC-3\r\nFormat/Info: Audio Coding 3\r\nFormat settings, Endianness: Big\r\nCodec ID: A_AC3\r\nDuration: 1 h 30 min\r\nBit rate mode: Constant\r\nBit rate: 448 kb/s\r\nChannel(s): 6 channels\r\nChannel positions: Front: L C R, Side: L R, LFE\r\nSampling rate: 48.0 kHz\r\nFrame rate: 31.250 FPS (1536 SPF)\r\nBit depth: 16 bits\r\nCompression mode: Lossy\r\nStream size: 289 MiB (17%)\r\nLanguage: English\r\nService kind: Complete Main\r\nDefault: Yes\r\nForced: No\r\n\r\nText #1\r\nID: 3\r\nFormat: VobSub\r\nCodec ID: S_VOBSUB\r\nCodec ID/Info: Picture based subtitle format used on DVDs\r\nDuration: 1 h 20 min\r\nBit rate: 4 751 b/s\r\nCount of elements: 724\r\nStream size: 2.72 MiB (0%)\r\nLanguage: German\r\nDefault: No\r\nForced: No\r\n\r\nText #2\r\nID: 4\r\nFormat: VobSub\r\nCodec ID: S_VOBSUB\r\nCodec ID/Info: Picture based subtitle format used on DVDs\r\nDuration: 1 h 20 min\r\nBit rate: 4 007 b/s\r\nCount of elements: 784\r\nStream size: 2.29 MiB (0%)\r\nLanguage: English\r\nDefault: No\r\nForced: No\r\n\r\nScreens: <a href=\"\nhttps://i.imgur.com/bJtZ9J7.jpg\" rel=\"nofollow\" target=\"_NEW\">\nhttps://i.imgur.com/bJtZ9J7.jpg</a> <a href=\"\nhttps://i.imgur.com/4rHBwVU.jpg\" rel=\"nofollow\" target=\"_NEW\">\nhttps://i.imgur.com/4rHBwVU.jpg</a> <a href=\"\nhttps://i.imgur.com/NzfdN8Y.jpg\" rel=\"nofollow\" target=\"_NEW\">\nhttps://i.imgur.com/NzfdN8Y.jpg</a> <a href=\"\nhttps://i.imgur.com/ClwUOe7.jpg\" rel=\"nofollow\" target=\"_NEW\">\nhttps://i.imgur.com/ClwUOe7.jpg</a> <a href=\"\nhttps://i.imgur.com/08x1foz.jpg\" rel=\"nofollow\" target=\"_NEW\">\nhttps://i.imgur.com/08x1foz.jpg</a> <a href=\"\nhttps://i.imgur.com/jw0Wp4U.jpg\" rel=\"nofollow\" target=\"_NEW\">\nhttps://i.imgur.com/jw0Wp4U.jpg</a>","last_updated":"2017-08-26T12:06:51.461Z","parsed":{"xt":"urn:btih:b142637c4ac46f2daebdc21951a04f9b1a3ae0b1","dn":"See No Evil 2 (2014) BluRay 10Bit 1080p DD5.1 H265-d3g","tr":["udp://exodus.desync.com:6969","udp://open.demonii.com:1337","udp://tracker.coppersurfer.tk:6969","udp://tracker.leechers-paradise.org:6969","udp://zer0day.ch:1337"],"infoHash":"b142637c4ac46f2daebdc21951a04f9b1a3ae0b1","infoHashBuffer":{"type":"Buffer","data":[177,66,99,124,74,196,111,45,174,189,194,25,81,160,79,155,26,58,224,177]},"name":"See No Evil 2 (2014) BluRay 10Bit 1080p DD5.1 H265-d3g","announce":["udp://exodus.desync.com:6969","udp://open.demonii.com:1337","udp://tracker.coppersurfer.tk:6969","udp://tracker.leechers-paradise.org:6969","udp://zer0day.ch:1337"],"urlList":[]}}